<svg width="293" height="74" viewBox="0 0 293 74" fill="none" xmlns="http://www.w3.org/2000/svg">
<path fill-rule="evenodd" clip-rule="evenodd" d="M93.9272 62.8019L112.352 33.2627L93.236 1.28586H83.3163L102.524 32.5577L83.7548 62.8019H93.9272Z" fill="#5043E8"/>
<path d="M171.126 43.8877H140.512C140.733 47.4047 141.794 50.1496 143.712 52.1245C145.614 54.0988 148.165 55.0863 151.351 55.0863C154.178 55.0863 156.536 54.5049 158.411 53.342C160.301 52.1791 161.941 50.2987 163.348 47.7015L170.712 51.7458C168.561 55.5327 165.9 58.3323 162.714 60.1858C159.542 62.038 155.806 62.9576 151.531 62.9576C145.38 62.9576 140.499 61.1181 136.857 57.4535C133.231 53.7742 131.411 48.8784 131.411 42.7514C131.411 36.855 133.286 32.0265 137.051 28.2258C140.802 24.4388 145.628 22.5452 151.531 22.5452C157.694 22.5452 162.507 24.2765 165.955 27.7384C169.402 31.1876 171.126 36.043 171.126 42.2651V43.8877H171.126ZM162.025 38.1263C161.679 35.4345 160.632 33.3791 158.881 31.9721C157.129 30.5524 154.73 29.8489 151.696 29.8489C148.813 29.8489 146.497 30.5387 144.746 31.9043C143.008 33.2846 141.78 35.3535 141.077 38.1263H162.024H162.025Z" fill="#5043E8"/>
<path d="M226.689 44.0829H196.076C196.297 47.6 197.358 50.3448 199.275 52.3197C201.178 54.2946 203.729 55.2815 206.915 55.2815C209.742 55.2815 212.1 54.7002 213.975 53.5373C215.864 52.3744 217.505 50.4945 218.912 47.8974L226.276 51.9413C224.125 55.7283 221.463 58.5283 218.278 60.3813C215.106 62.2335 211.369 63.1531 207.094 63.1531C200.944 63.1531 196.062 61.3141 192.421 57.6491C188.795 53.9698 186.974 49.074 186.974 42.9469C186.974 37.0505 188.85 32.2225 192.614 28.4213C196.366 24.6344 201.192 22.7413 207.094 22.7413C213.258 22.7413 218.071 24.4721 221.519 27.9345C224.966 31.3837 226.69 36.2385 226.69 42.4606V44.0832L226.689 44.0829ZM217.119 36.717C216.774 34.0251 215.726 31.9692 213.975 30.5627C212.223 29.1425 209.824 28.4393 206.79 28.4393C203.907 28.4393 201.591 29.1291 199.84 30.4952C198.103 31.875 196.875 33.9444 196.171 36.7172H217.119L217.119 36.717Z" fill="#5043E8"/>
<path d="M238.949 31.2701C239.9 28.7809 241.141 26.9422 242.686 25.7519C244.244 24.5617 246.16 23.9664 248.463 23.9664C249.705 23.9664 250.918 24.115 252.118 24.3992C253.318 24.6829 254.504 25.1162 255.662 25.6571L252.504 32.9743C251.746 32.4465 250.932 32.0541 250.063 31.8108C249.181 31.5535 248.202 31.4322 247.126 31.4322C244.203 31.4322 242.12 32.5682 240.851 34.8537C239.583 37.1394 238.949 40.981 238.949 46.3634V62.837H230.178V25.1837H238.949V31.2696V31.2701Z" fill="#5043E8"/>
<path d="M174.731 62.8372V1.40723H183.501V62.8372H174.731Z" fill="#5043E8"/>
<path fill-rule="evenodd" clip-rule="evenodd" d="M115.038 31.7396L133.501 1.4497L122.837 1.35919L110.051 23.3466L115.038 31.7396Z" fill="#5043E8"/>
<path fill-rule="evenodd" clip-rule="evenodd" d="M109.654 42.8113L115.069 34.119L132.766 62.776L121.525 62.8816L109.654 42.8113Z" fill="#5043E8"/>
<path fill-rule="evenodd" clip-rule="evenodd" d="M41.9052 69.8389L31.7851 61.8749H52.0259L41.9052 69.8389ZM7.20711 43.1707L41.8794 71.4161L13.8637 59.0902L7.20711 43.1707ZM22.3144 19.7806L27.9053 19.8275L16.1063 5.57001L22.3144 19.7806ZM6.92003 41.503L23.0349 41.55L38.0871 20.1785L14.1019 0L0 32.5089L6.92003 41.5027L3.43257 32.9817L14.2119 3.15154L28.7617 20.1882L22.0513 20.1529L6.92003 41.5027V41.503ZM7.0438 42.3918L30.5329 61.5263L22.9919 42.3923L7.0438 42.3918ZM76.585 43.1718L41.9133 71.4169L69.929 59.0915L76.585 43.1721V43.1718ZM61.4783 19.7816L55.8874 19.828L67.6864 5.57106L61.4783 19.7816ZM76.8727 41.5041L60.7577 41.551L45.7056 20.1795L69.6908 0.00105553L83.7927 32.5099L76.8727 41.5038L80.3607 32.9828L69.5808 3.15206L55.031 20.1893L61.7414 20.1537L76.8727 41.5038V41.5041ZM76.7489 42.3923L53.2593 61.5274L60.8008 42.3933L76.7489 42.3923ZM52.0283 61.5358L59.7752 42.5076L41.9033 61.5358H52.0283ZM44.6891 22.2803L57.2921 40.9077L42.1043 57.8726L26.8111 41.5283L39.3344 22.2536L44.6894 22.2806L44.6891 22.2803ZM31.7638 61.5348L24.0165 42.5065L41.8888 61.5348H31.7638Z" fill="#5043E8"/>
<path fill-rule="evenodd" clip-rule="evenodd" d="M259.719 63.1996L261.137 60.8489C262.573 57.9797 266.523 51.9176 263.102 51.9176C261.858 51.9176 261.455 53.3504 260.065 54.7298C258.665 56.1188 250.184 65.3373 250.184 61.3294C250.184 56.3677 256.633 51.4328 260.889 49.022C260.96 48.9824 261.057 48.9331 261.126 48.8916L261.995 48.2971C263.361 49.2532 260.753 48.4264 260.519 51.1932C269.519 46.5228 265.226 44.3149 264.579 44.3149C258.301 44.3149 247.6 52.5847 247.6 59.1572C247.6 61.1104 247.316 63.5956 249.799 64.639C252.654 65.8392 259.358 58.1494 259.412 58.0713L259.843 58.3729C259.843 58.4943 259.641 58.5196 259.619 58.6363C259.597 58.7542 259.49 58.7985 259.461 58.8429C258.233 60.6658 256.784 65.0541 255.088 66.8638C253.86 68.1735 252.859 68.3104 251.64 70.0003C250.954 70.9524 249.619 74 252.029 74C253.89 74 256.595 68.7712 257.842 67.3921C259.043 66.0645 259.93 65.6265 261.169 64.5013C262.394 63.3906 263.243 62.2071 264.578 61.3297C265.96 63.8899 266.27 64.9494 269.377 64.9494C277.235 64.9494 284.701 47.7469 276.759 47.5733L278.974 46.8492C277.145 40.1308 269.829 47.2266 267.839 49.6841C265.517 52.5501 264.21 55.1335 264.21 60.243C263.215 60.8969 260.785 62.6507 260.149 63.5012L259.719 63.1996H259.719ZM269.377 53.7278L269.488 53.8355C269.48 53.8283 269.341 53.7629 269.377 53.7278ZM268.64 63.1399C265.251 63.1399 268.527 54.5506 269.218 54.9599C269.234 54.9696 269.349 55.1491 269.562 55.1607C270.458 55.2095 272.315 49.3827 276.76 49.3827C277.713 49.3827 277.497 50.9821 277.497 51.9173C277.497 55.5288 272.142 63.1397 268.64 63.1397V63.1399Z" fill="#5043E8"/>
<path fill-rule="evenodd" clip-rule="evenodd" d="M283.773 56.2616C284.981 57.0553 284.286 57.2087 285.987 57.3475C287.348 55.3557 286.275 55.7663 287.467 53.7312C288.175 52.5226 288.674 51.6078 289.43 50.2261C290.307 48.6249 292.867 44.7893 293 43.2293C289.476 42.4239 290.5 40.8248 285.242 52.2733C284.645 53.574 283.923 54.4809 283.773 56.2616Z" fill="#5043E8"/>
<path fill-rule="evenodd" clip-rule="evenodd" d="M282.665 59.8815C282.665 62.9665 282.399 62.7776 284.88 62.7776C285.668 61.316 286.822 57.7092 283.404 57.7092C283.02 58.4209 282.665 58.7766 282.665 59.8818L282.665 59.8815Z" fill="#5043E8"/>
</svg>
